<svg width="133" height="118" viewBox="0 0 133 118" fill="none" xmlns="http://www.w3.org/2000/svg">
<g filter="url(#filter0_d_72_1366)">
<path d="M83 20C67.25 20 53 32.075 53 50.75C53 63.2 63.0125 77.9375 83 95C102.987 77.9375 113 63.2 113 50.75C113 32.075 98.75 20 83 20ZM83 50.7125C67.8125 36.8375 95.1875 59.525 95.1875 50.7125C95.1875 37.1375 70.4375 42.5 83 42.5C95.5625 42.5 76.9062 37.1 76.9062 50.7125C76.9062 59.4875 98.1875 36.875 83 50.7125Z" fill="#E75724"/>
<rect x="60.5" y="27.1914" width="45.2055" height="45.2055" rx="22.6027" fill="#FFF4E6"/>
<path d="M73.1278 50.5439C74.9128 50.5439 75.2578 52.0439 78.1228 52.0439C81.0478 52.0439 81.2578 50.5439 83.1178 50.5439C84.9028 50.5439 85.2478 52.0439 88.1128 52.0439C91.0378 52.0439 91.2478 50.5439 93.1078 50.5439C94.8928 50.5439 95.2078 52.0139 98.0728 52.0439V49.0439C96.2878 49.0439 95.9428 47.5439 93.0778 47.5439C90.1528 47.5439 89.9428 49.0439 88.0828 49.0439C86.2978 49.0439 85.9528 47.5439 83.0878 47.5439C80.1628 47.5439 79.9528 49.0439 78.0928 49.0439C76.3078 49.0439 75.9628 47.5439 73.0978 47.5439C70.1728 47.5439 69.9628 49.0439 68.1028 49.0439V52.0439C70.9528 52.0439 71.3578 50.5439 73.1278 50.5439ZM93.1078 53.5439C90.1828 53.5439 89.9728 55.0439 88.1128 55.0439C86.3278 55.0439 85.9828 53.5439 83.1178 53.5439C80.1928 53.5439 79.9678 55.0439 78.1078 55.0439C76.2478 55.0439 76.0378 53.5439 73.1128 53.5439C70.1878 53.5439 69.9628 55.0439 68.1028 55.0439V58.0439C71.0278 58.0439 71.2678 56.5439 73.1128 56.5439C74.9728 56.5439 75.1828 58.0439 78.1078 58.0439C81.0328 58.0439 81.2578 56.5439 83.1178 56.5439C84.9028 56.5439 85.2478 58.0439 88.1128 58.0439C91.0228 58.0439 91.2478 56.5439 93.1078 56.5439C94.8928 56.5439 95.2378 58.0439 98.1028 58.0439V55.0439C96.2428 55.0439 96.0328 53.5439 93.1078 53.5439ZM73.1278 44.5439C74.9128 44.5439 75.2578 46.0439 78.1228 46.0439C81.0478 46.0439 81.2578 44.5439 83.1178 44.5439C84.9028 44.5439 85.2478 46.0439 88.1128 46.0439C91.0378 46.0439 91.2478 44.5439 93.1078 44.5439C94.8928 44.5439 95.2078 46.0139 98.0728 46.0439V43.0439C96.2878 43.0439 95.9428 41.5439 93.0778 41.5439C90.1528 41.5439 89.9428 43.0439 88.0828 43.0439C86.2978 43.0439 85.9528 41.5439 83.0878 41.5439C80.1628 41.5439 79.9528 43.0439 78.0928 43.0439C76.3078 43.0439 75.9628 41.5439 73.0978 41.5439C70.1728 41.5439 69.9628 43.0439 68.1028 43.0439V46.0439C70.9528 46.0439 71.3578 44.5439 73.1278 44.5439Z" fill="#F25C05"/>
</g>
<defs>
<filter id="filter0_d_72_1366" x="0.499992" y="-26.5" width="165" height="180" filterUnits="userSpaceOnUse" color-interpolation-filters="sRGB">
<feFlood flood-opacity="0" result="BackgroundImageFix"/>
<feColorMatrix in="SourceAlpha" type="matrix" values="0 0 0 0 0 0 0 0 0 0 0 0 0 0 0 0 0 0 127 0" result="hardAlpha"/>
<feOffset dy="6"/>
<feGaussianBlur stdDeviation="26.25"/>
<feComposite in2="hardAlpha" operator="out"/>
<feColorMatrix type="matrix" values="0 0 0 0 0 0 0 0 0 0 0 0 0 0 0 0 0 0 0.25 0"/>
<feBlend mode="normal" in2="BackgroundImageFix" result="effect1_dropShadow_72_1366"/>
<feBlend mode="normal" in="SourceGraphic" in2="effect1_dropShadow_72_1366" result="shape"/>
</filter>
</defs>
</svg>
