<?xml version="1.0" encoding="UTF-8"?>
<svg id="Layer_1" xmlns="http://www.w3.org/2000/svg" version="1.1" viewBox="0 0 800 800">
  <!-- Generator: Adobe Illustrator 29.4.0, SVG Export Plug-In . SVG Version: 2.1.0 Build 152)  -->
  <defs>
    <style>
      .st0 {
        fill: #306ddd;
      }
    </style>
  </defs>
  <path class="st0" d="M607.63,489.14c-17.87-4.33-35.87,6.83-40.1,24.73-4.27,17.9,6.83,35.87,24.73,40.1,103.53,24.57,141.06,60.9,141.06,79.37,0,39.83-132.93,100-333.33,100s-333.33-60.17-333.33-100c0-18.47,37.57-54.8,141.03-79.37,17.93-4.23,29-22.2,24.73-40.1-4.23-17.9-22.23-29.07-40.1-24.73C68.31,518.54,0,569.74,0,633.34c0,109.4,201.26,166.66,399.99,166.66s399.99-57.27,399.99-166.66c0-63.6-68.3-114.8-192.36-144.2Z"/>
  <path class="st0" d="M400.02,266.68c18.4,0,33.33-14.93,33.33-33.33s-14.93-33.33-33.33-33.33-33.33,14.93-33.33,33.33,14.93,33.33,33.33,33.33Z"/>
  <path class="st0" d="M356.62,621.11l13.57,27.13c5.67,11.3,17.2,18.43,29.83,18.43s24.17-7.13,29.83-18.43l28.73-57.47c34.97-69.97,78.1-137.73,119.8-203.26l19-29.9c23.53-37.2,35.97-80.17,35.97-124.26,0-66.4-28.43-129.86-78-174.13C505.81,14.99,439.18-6.21,372.75,1.59c-103.73,11.8-189.4,95.33-203.76,198.6-8.5,61.2,6.8,121.96,43.03,171.16,56.53,76.6,100.67,161.83,144.6,249.76ZM400.02,133.35c55.13,0,100,44.87,100,100s-44.87,100-100,100-100-44.87-100-100c0-55.13,44.87-100,100-100Z"/>
</svg>