<svg width="15" height="15" viewBox="0 0 15 15" fill="none" xmlns="http://www.w3.org/2000/svg">
<path d="M2.64016 1.27L7.50016 6.13L12.3402 1.29C12.5116 1.1076 12.7499 1.0029 13.0002 1C13.5525 1 14.0002 1.4477 14.0002 2C14.0049 2.2478 13.9072 2.4866 13.7302 2.66L8.84016 7.5L13.7302 12.39C13.895 12.5512 13.9917 12.7696 14.0002 13C14.0002 13.5523 13.5525 14 13.0002 14C12.7425 14.0107 12.4922 13.9127 12.3102 13.73L7.50016 8.87L2.65016 13.72C2.47946 13.8963 2.24546 13.9971 2.00016 14C1.44786 14 1.00016 13.5523 1.00016 13C0.995462 12.7522 1.09316 12.5134 1.27016 12.34L6.16016 7.5L1.27016 2.61C1.10536 2.4488 1.00866 2.2304 1.00016 2C1.00016 1.4477 1.44786 1 2.00016 1C2.24056 1.0029 2.47026 1.0998 2.64016 1.27Z" fill="#5A5A5A"/>
</svg>
