<svg width="24" height="24" viewBox="0 0 24 24" fill="none" xmlns="http://www.w3.org/2000/svg">
<path fill-rule="evenodd" clip-rule="evenodd" d="M9.15358 2.11379L9.27681 2.00483C10.6424 3.54926 13.2012 3.71008 14.7322 2L14.8591 2.1136L14.9821 2.00483C16.3478 3.54926 18.9065 3.71008 20.4376 2L22 3.39884C20.0551 5.5712 17.0724 5.81571 14.8628 4.56703C13.0611 5.60614 10.8754 5.53798 9.1573 4.56691C6.79085 5.93187 3.76185 5.38652 2 3.394L3.57105 2.00483C4.93668 3.54926 7.49547 3.71008 9.02648 2L9.15358 2.11379ZM9.15358 7.43111L9.27681 7.32215C10.6424 8.86658 13.2012 9.0274 14.7322 7.31732L14.8591 7.43092L14.9821 7.32215C16.3478 8.86658 18.9065 9.0274 20.4376 7.31732L22 8.71616C20.0551 10.8885 17.0724 11.133 14.8628 9.88435C13.0611 10.9235 10.8754 10.8553 9.1573 9.88423C6.79085 11.2492 3.76185 10.7038 2 8.71132L3.57105 7.32215C4.93668 8.86658 7.49547 9.0274 9.02648 7.31732L9.15358 7.43111ZM9.27681 12.6395L9.15358 12.7484L9.02648 12.6346C7.49547 14.3447 4.93668 14.1839 3.57105 12.6395L2 14.0286C3.76185 16.0212 6.79085 16.5665 9.1573 15.2015C10.8754 16.1726 13.0611 16.2408 14.8628 15.2017C17.0724 16.4503 20.0551 16.2058 22 14.0335L20.4376 12.6346C18.9065 14.3447 16.3478 14.1839 14.9821 12.6395L14.8591 12.7482L14.7322 12.6346C13.2012 14.3447 10.6424 14.1839 9.27681 12.6395ZM9.15358 18.0657L9.27681 17.9568C10.6424 19.5012 13.2012 19.662 14.7322 17.9519L14.8591 18.0655L14.9821 17.9568C16.3478 19.5012 18.9065 19.662 20.4376 17.9519L22 19.3508C20.0551 21.5231 17.0724 21.7677 14.8628 20.519C13.0611 21.5581 10.8754 21.4899 9.1573 20.5189C6.79085 21.8838 3.76185 21.3385 2 19.3459L3.57105 17.9568C4.93668 19.5012 7.49547 19.662 9.02648 17.9519L9.15358 18.0657Z" fill="black"/>
</svg>
