<svg width="35" height="35" viewBox="0 0 35 35" fill="none" xmlns="http://www.w3.org/2000/svg">
<path d="M21.1457 5.10384C21.1457 7.29134 18.9582 13.8538 18.9582 13.8538H16.0415C16.0415 13.8538 13.854 7.29134 13.854 5.10384C13.854 3.09134 15.4873 1.45801 17.4998 1.45801C19.5123 1.45801 21.1457 3.09134 21.1457 5.10384ZM17.4998 16.0413C15.8957 16.0413 14.5832 17.3538 14.5832 18.958C14.5832 20.5622 15.8957 21.8747 17.4998 21.8747C19.104 21.8747 20.4165 20.5622 20.4165 18.958C20.4165 17.3538 19.104 16.0413 17.4998 16.0413ZM23.4498 8.91009C23.7123 7.81634 23.9311 6.76634 24.0186 5.90592C28.8019 8.29759 32.0832 13.2413 32.0832 18.958C32.0832 27.008 25.5498 33.5413 17.4998 33.5413C9.44984 33.5413 2.9165 27.008 2.9165 18.958C2.9165 13.2413 6.19775 8.29759 10.9811 5.90592C11.0832 6.76634 11.2873 7.83093 11.5498 8.91009C8.13734 10.9518 5.83317 14.6851 5.83317 18.958C5.83317 25.4038 11.054 30.6247 17.4998 30.6247C23.9457 30.6247 29.1665 25.4038 29.1665 18.958C29.1665 14.6851 26.8623 10.9518 23.4498 8.91009ZM26.2498 18.958C26.2498 23.7851 22.3269 27.708 17.4998 27.708C12.6728 27.708 8.74984 23.7851 8.74984 18.958C8.74984 16.0413 10.179 13.4601 12.3665 11.8705C12.7019 13.0518 13.3144 14.8893 13.3144 14.8893C12.2936 15.9393 11.6665 17.383 11.6665 18.958C11.6665 22.1809 14.2769 24.7913 17.4998 24.7913C20.7228 24.7913 23.3332 22.1809 23.3332 18.958C23.3332 17.383 22.7061 15.9393 21.6853 14.8893C21.6853 14.8893 22.2832 13.1101 22.6332 11.8705C24.8207 13.4601 26.2498 16.0413 26.2498 18.958Z" fill="#fff"/>
</svg>
