<svg width="24" height="24" viewBox="0 0 24 24" fill="none" xmlns="http://www.w3.org/2000/svg">
<path fill-rule="evenodd" clip-rule="evenodd" d="M9.15358 12.7486L9.27681 12.6396C10.6424 14.184 13.2012 14.3448 14.7322 12.6348L14.8591 12.7484L14.9821 12.6396C16.3478 14.184 18.9065 14.3448 20.4376 12.6348L22 14.0336C20.0551 16.206 17.0724 16.4505 14.8628 15.2018C13.0611 16.2409 10.8754 16.1727 9.1573 15.2017C6.79085 16.5666 3.76185 16.0213 2 14.0288L3.57105 12.6396C4.93668 14.184 7.49547 14.3448 9.02648 12.6348L9.15358 12.7486ZM9.15358 18.0659L9.27681 17.9569C10.6424 19.5013 13.2012 19.6622 14.7322 17.9521L14.8591 18.0657L14.9821 17.9569C16.3478 19.5013 18.9065 19.6622 20.4376 17.9521L22 19.3509C20.0551 21.5233 17.0724 21.7678 14.8628 20.5191C13.0611 21.5582 10.8754 21.4901 9.1573 20.519C6.79085 21.8839 3.76185 21.3386 2 19.3461L3.57105 17.9569C4.93668 19.5013 7.49547 19.6622 9.02648 17.9521L9.15358 18.0659Z" fill="black"/>
</svg>
