<svg width="24" height="24" viewBox="0 0 24 24" fill="none" xmlns="http://www.w3.org/2000/svg">
<path fill-rule="evenodd" clip-rule="evenodd" d="M9.27681 7.32222L9.15358 7.43118L9.02648 7.31738C7.49547 9.02747 4.93668 8.86664 3.57105 7.32222L2 8.71139C3.76185 10.7039 6.79085 11.2492 9.1573 9.88429C10.8754 10.8554 13.0611 10.9235 14.8628 9.88442C17.0724 11.1331 20.0551 10.8886 22 8.71622L20.4376 7.31738C18.9065 9.02747 16.3478 8.86664 14.9821 7.32222L14.8591 7.43099L14.7322 7.31738C13.2012 9.02747 10.6424 8.86664 9.27681 7.32222ZM9.27681 12.6395L9.15358 12.7485L9.02648 12.6347C7.49547 14.3448 4.93668 14.184 3.57105 12.6395L2 14.0287C3.76185 16.0212 6.79085 16.5666 9.1573 15.2016C10.8754 16.1727 13.0611 16.2408 14.8628 15.2017C17.0724 16.4504 20.0551 16.2059 22 14.0335L20.4376 12.6347C18.9065 14.3448 16.3478 14.184 14.9821 12.6395L14.8591 12.7483L14.7322 12.6347C13.2012 14.3448 10.6424 14.184 9.27681 12.6395ZM9.15358 18.0658L9.27681 17.9568C10.6424 19.5013 13.2012 19.6621 14.7322 17.952L14.8591 18.0656L14.9821 17.9568C16.3478 19.5013 18.9065 19.6621 20.4376 17.952L22 19.3508C20.0551 21.5232 17.0724 21.7677 14.8628 20.519C13.0611 21.5581 10.8754 21.49 9.1573 20.5189C6.79085 21.8839 3.76185 21.3385 2 19.346L3.57105 17.9568C4.93668 19.5013 7.49547 19.6621 9.02648 17.952L9.15358 18.0658Z" fill="white"/>
</svg>
