<svg width="35" height="35" viewBox="0 0 35 35" fill="none" xmlns="http://www.w3.org/2000/svg">
<path d="M27.2269 25.7104C21.6853 29.7937 18.3019 26.2937 17.4998 25.7104C16.5373 26.425 13.2415 29.7354 7.77275 25.7104C5.00192 27.7521 3.86442 27.7083 2.9165 27.7083V30.625C4.60817 30.625 6.27067 30.1583 7.77275 29.2688C10.7769 31.0479 14.4957 31.0479 17.4998 29.2688C20.504 31.0479 24.2228 31.0479 27.2269 29.2688C28.729 30.1583 30.3915 30.625 32.0832 30.625V27.7083C31.1207 27.7083 29.8957 27.6792 27.2269 25.7104Z" fill="#306DDD"/>
<path d="M28.1894 17.5H32.0832V14.5833H28.1894C25.5207 14.5833 23.3332 12.3958 23.3332 9.72708C23.3332 8.23958 23.8873 7.18958 24.9228 4.85625C22.9248 4.55 22.0061 4.375 20.4165 4.375C10.7332 4.375 3.13525 11.7104 2.93109 21.1458L2.9165 24.0625C4.60817 24.0625 6.27067 23.5958 7.77275 22.7062C10.7769 24.4854 14.4957 24.4854 17.4998 22.7062C20.504 24.4854 24.2228 24.4854 27.2269 22.7062C28.729 23.5958 30.3915 24.0625 32.0832 24.0625V21.1458C31.1207 21.1458 29.8957 21.1167 27.2269 19.1479C21.6853 23.2313 18.3019 19.7313 17.4998 19.1479C16.1873 20.125 16.7123 19.7458 16.1728 20.0667C15.1519 18.6958 14.5832 17.0625 14.5832 15.3125C14.5832 11.55 17.1644 8.4 20.7228 7.53958C20.5332 8.28333 20.4165 9.02708 20.4165 9.72708C20.4165 14.0146 23.9019 17.5 28.1894 17.5Z" fill="#306DDD"/>
</svg>
