<svg width="35" height="35" viewBox="0 0 35 35" fill="none" xmlns="http://www.w3.org/2000/svg">
<path d="M27.2269 27.7087C24.3832 27.7087 24.179 29.167 22.3707 29.167C20.6353 29.167 20.2998 27.7087 17.5144 27.7087C14.6707 27.7087 14.4519 29.167 12.6436 29.167C10.8353 29.167 10.6311 27.7087 7.78734 27.7087C4.94359 27.7087 4.72484 29.167 2.9165 29.167V32.0837C5.76025 32.0837 5.99359 30.6253 7.78734 30.6253C9.59567 30.6253 9.79984 32.0837 12.6436 32.0837C15.4873 32.0837 15.7061 30.6253 17.5144 30.6253C19.2936 30.6253 19.5561 32.0837 22.3707 32.0837C25.1853 32.0837 25.4332 30.6253 27.2269 30.6253C29.0061 30.6253 29.2686 32.0837 32.0832 32.0837V29.167C30.2748 29.167 30.0707 27.7087 27.2269 27.7087Z" fill="#fff"/>
<path d="M12.6582 25.5212C15.5019 25.5212 15.7061 24.0628 17.5144 24.0628C19.2498 24.0628 19.5853 25.5212 22.3707 25.5212C25.2144 25.5212 25.4186 24.0628 27.2269 24.0628C28.9623 24.0628 29.2686 25.492 32.054 25.5212V22.6045C31.1353 22.6045 30.5957 22.1962 29.8957 21.8024L26.9498 10.8212L29.9978 12.0607L31.0769 9.34824L14.2623 2.91699L2.9165 16.9316L5.20609 18.7253L7.23317 16.1295L8.58942 21.2045C8.32692 21.1753 8.079 21.1316 7.77275 21.1316C4.929 21.1316 4.72484 22.5899 2.9165 22.5899V25.5066C5.68734 25.5066 6.08109 24.0482 7.80192 24.0482C9.53734 24.0628 9.87275 25.5212 12.6582 25.5212ZM20.4748 14.8462L22.5457 22.5899C20.5915 22.7212 20.4019 21.1462 17.4853 21.1462C16.9603 21.1462 16.5373 21.2045 16.1582 21.292L14.8311 16.3482L20.4748 14.8462Z" fill="#fff"/>
</svg>
