<svg width="35" height="35" viewBox="0 0 35 35" fill="none" xmlns="http://www.w3.org/2000/svg">
<path d="M2.1875 32.4476H8.02083V16.4059H2.1875V32.4476ZM29.8958 25.1559H19.6875L16.6396 24.0913L17.1208 22.7205L19.6875 23.6976H23.8C24.7479 23.6976 25.5208 22.9247 25.5208 21.9768C25.5208 21.2622 25.0688 20.6205 24.3979 20.358L13.8104 16.4059H10.9375V29.5601L21.1458 32.4476L32.8125 28.0726C32.7979 26.4684 31.5146 25.1559 29.8958 25.1559ZM21.1458 2.55176L10.9375 9.84342V13.4893H13.8542L25.725 18.2434C27.3583 18.8997 28.4375 20.4747 28.4375 22.2393H31.3542V9.84342L21.1458 2.55176ZM20.4167 14.9476H18.9583V13.4893H20.4167V14.9476ZM20.4167 12.0309H18.9583V10.5726H20.4167V12.0309ZM23.3333 14.9476H21.875V13.4893H23.3333V14.9476ZM23.3333 12.0309H21.875V10.5726H23.3333V12.0309Z" fill="#306DDD"/>
</svg>
